<mxfile host="Electron" modified="2024-06-06T01:39:40.859Z" agent="Mozilla/5.0 (X11; Linux x86_64) AppleWebKit/537.36 (KHTML, like Gecko) draw.io/24.4.8 Chrome/124.0.6367.207 Electron/30.0.6 Safari/537.36" etag="ZmmQRc5t6vb5DmkhEnJZ" version="24.4.8" type="device">
  <diagram name="Page-1" id="KoP7njtCworViHrCnJjv">
    <mxGraphModel dx="1384" dy="838" grid="1" gridSize="10" guides="1" tooltips="1" connect="1" arrows="1" fold="1" page="1" pageScale="1" pageWidth="1100" pageHeight="850" math="0" shadow="0">
      <root>
        <mxCell id="0" />
        <mxCell id="1" parent="0" />
        <mxCell id="Q9otqVJlc2ox9_VG591W-1" value="&lt;font style=&quot;font-size: 18px;&quot;&gt;Estacionamiento de bicicletas en la USM&lt;/font&gt;" style="ellipse;whiteSpace=wrap;html=1;" parent="1" vertex="1">
          <mxGeometry x="430" y="360" width="240" height="130" as="geometry" />
        </mxCell>
        <mxCell id="Q9otqVJlc2ox9_VG591W-2" value="&lt;font style=&quot;font-size: 17px;&quot;&gt;Estudiante&lt;/font&gt;" style="rounded=0;whiteSpace=wrap;html=1;" parent="1" vertex="1">
          <mxGeometry x="199" y="224" width="120" height="60" as="geometry" />
        </mxCell>
        <mxCell id="Q9otqVJlc2ox9_VG591W-3" value="&lt;font style=&quot;font-size: 17px;&quot;&gt;Llavero&lt;/font&gt;" style="rounded=0;whiteSpace=wrap;html=1;" parent="1" vertex="1">
          <mxGeometry x="800" y="180" width="120" height="60" as="geometry" />
        </mxCell>
        <mxCell id="Q9otqVJlc2ox9_VG591W-4" value="&lt;font style=&quot;font-size: 17px;&quot;&gt;Página Web&lt;/font&gt;" style="rounded=0;whiteSpace=wrap;html=1;" parent="1" vertex="1">
          <mxGeometry x="130" y="550" width="120" height="60" as="geometry" />
        </mxCell>
        <mxCell id="Q9otqVJlc2ox9_VG591W-5" value="&lt;font style=&quot;font-size: 17px;&quot;&gt;Servidor Central&lt;/font&gt;" style="rounded=0;whiteSpace=wrap;html=1;" parent="1" vertex="1">
          <mxGeometry x="650" y="604" width="120" height="60" as="geometry" />
        </mxCell>
        <mxCell id="Q9otqVJlc2ox9_VG591W-6" value="" style="endArrow=classic;html=1;rounded=0;" parent="1" edge="1">
          <mxGeometry width="50" height="50" relative="1" as="geometry">
            <mxPoint x="560" y="500" as="sourcePoint" />
            <mxPoint x="640" y="640" as="targetPoint" />
            <Array as="points">
              <mxPoint x="570" y="570" />
            </Array>
          </mxGeometry>
        </mxCell>
        <mxCell id="Q9otqVJlc2ox9_VG591W-7" value="" style="endArrow=classic;html=1;rounded=0;exitX=0.95;exitY=-0.067;exitDx=0;exitDy=0;exitPerimeter=0;" parent="1" edge="1">
          <mxGeometry width="50" height="50" relative="1" as="geometry">
            <mxPoint x="753" y="593.98" as="sourcePoint" />
            <mxPoint x="649" y="488" as="targetPoint" />
            <Array as="points">
              <mxPoint x="719" y="528" />
            </Array>
          </mxGeometry>
        </mxCell>
        <mxCell id="Q9otqVJlc2ox9_VG591W-9" value="&lt;font style=&quot;font-size: 17px;&quot;&gt;Se envía la información al servidor central y se abre la cerradura&lt;/font&gt;" style="text;html=1;align=center;verticalAlign=middle;whiteSpace=wrap;rounded=0;" parent="1" vertex="1">
          <mxGeometry x="780" y="330" width="180" height="90" as="geometry" />
        </mxCell>
        <mxCell id="Q9otqVJlc2ox9_VG591W-10" value="&lt;span style=&quot;font-size: 17px;&quot;&gt;Registra la hora en que se retira la bicicleta y envía órdenes de apertura y cierre&lt;/span&gt;" style="text;html=1;align=center;verticalAlign=middle;whiteSpace=wrap;rounded=0;" parent="1" vertex="1">
          <mxGeometry x="730" y="470" width="180" height="90" as="geometry" />
        </mxCell>
        <mxCell id="Q9otqVJlc2ox9_VG591W-11" value="&lt;span style=&quot;font-size: 17px;&quot;&gt;Recopila los datos y la hora de acceso al estacionamiento&lt;/span&gt;" style="text;html=1;align=center;verticalAlign=middle;whiteSpace=wrap;rounded=0;" parent="1" vertex="1">
          <mxGeometry x="380" y="550" width="180" height="90" as="geometry" />
        </mxCell>
        <mxCell id="Q9otqVJlc2ox9_VG591W-12" value="" style="endArrow=classic;html=1;rounded=0;" parent="1" edge="1">
          <mxGeometry width="50" height="50" relative="1" as="geometry">
            <mxPoint x="420" y="450" as="sourcePoint" />
            <mxPoint x="250" y="540" as="targetPoint" />
          </mxGeometry>
        </mxCell>
        <mxCell id="Q9otqVJlc2ox9_VG591W-13" value="&lt;span style=&quot;font-size: 17px;&quot;&gt;Entrega interfaz web al usuario y los guardias&lt;/span&gt;" style="text;html=1;align=center;verticalAlign=middle;whiteSpace=wrap;rounded=0;" parent="1" vertex="1">
          <mxGeometry x="100" y="440" width="180" height="90" as="geometry" />
        </mxCell>
        <mxCell id="Q9otqVJlc2ox9_VG591W-14" value="" style="endArrow=classic;html=1;rounded=0;" parent="1" edge="1">
          <mxGeometry width="50" height="50" relative="1" as="geometry">
            <mxPoint x="420" y="390" as="sourcePoint" />
            <mxPoint x="260" y="310" as="targetPoint" />
            <Array as="points">
              <mxPoint x="300" y="360" />
            </Array>
          </mxGeometry>
        </mxCell>
        <mxCell id="Q9otqVJlc2ox9_VG591W-15" value="" style="endArrow=classic;html=1;rounded=0;" parent="1" edge="1">
          <mxGeometry width="50" height="50" relative="1" as="geometry">
            <mxPoint x="340" y="250" as="sourcePoint" />
            <mxPoint x="470" y="350" as="targetPoint" />
            <Array as="points">
              <mxPoint x="420" y="270" />
            </Array>
          </mxGeometry>
        </mxCell>
        <mxCell id="Q9otqVJlc2ox9_VG591W-16" value="&lt;font style=&quot;font-size: 17px;&quot;&gt;Se solicitan datos&lt;/font&gt;" style="text;html=1;align=center;verticalAlign=middle;whiteSpace=wrap;rounded=0;" parent="1" vertex="1">
          <mxGeometry x="170" y="340" width="120" height="50" as="geometry" />
        </mxCell>
        <mxCell id="Q9otqVJlc2ox9_VG591W-17" value="&lt;font style=&quot;font-size: 17px;&quot;&gt;Los datos se guardan en el servidor central&lt;/font&gt;" style="text;html=1;align=center;verticalAlign=middle;whiteSpace=wrap;rounded=0;" parent="1" vertex="1">
          <mxGeometry x="430" y="200" width="140" height="54" as="geometry" />
        </mxCell>
        <mxCell id="Q9otqVJlc2ox9_VG591W-18" value="" style="endArrow=classic;html=1;rounded=0;" parent="1" edge="1">
          <mxGeometry width="50" height="50" relative="1" as="geometry">
            <mxPoint x="620" y="364" as="sourcePoint" />
            <mxPoint x="790" y="224" as="targetPoint" />
            <Array as="points">
              <mxPoint x="720" y="274" />
            </Array>
          </mxGeometry>
        </mxCell>
        <mxCell id="Q9otqVJlc2ox9_VG591W-19" value="" style="endArrow=classic;html=1;rounded=0;" parent="1" edge="1">
          <mxGeometry width="50" height="50" relative="1" as="geometry">
            <mxPoint x="840" y="260" as="sourcePoint" />
            <mxPoint x="690" y="380" as="targetPoint" />
            <Array as="points">
              <mxPoint x="770" y="330" />
            </Array>
          </mxGeometry>
        </mxCell>
        <mxCell id="Q9otqVJlc2ox9_VG591W-20" value="&lt;font style=&quot;font-size: 17px;&quot;&gt;El estudiante acerca el llavero al lector RFID&lt;/font&gt;" style="text;html=1;align=center;verticalAlign=middle;whiteSpace=wrap;rounded=0;" parent="1" vertex="1">
          <mxGeometry x="610" y="180" width="170" height="60" as="geometry" />
        </mxCell>
      </root>
    </mxGraphModel>
  </diagram>
</mxfile>
